<?xml version="1.0" encoding="UTF-8"?>
<!DOCTYPE svg PUBLIC "-//W3C//DTD SVG 1.1//EN" "http://www.w3.org/Graphics/SVG/1.1/DTD/svg11.dtd">
<svg xmlns="http://www.w3.org/2000/svg" version="1.1" width="197px" height="197px" style="shape-rendering:geometricPrecision; text-rendering:geometricPrecision; image-rendering:optimizeQuality; fill-rule:evenodd; clip-rule:evenodd" xmlns:xlink="http://www.w3.org/1999/xlink">
<g><path style="opacity:1" fill="#010101" d="M -0.5,-0.5 C 65.1667,-0.5 130.833,-0.5 196.5,-0.5C 196.5,65.1667 196.5,130.833 196.5,196.5C 130.833,196.5 65.1667,196.5 -0.5,196.5C -0.5,130.833 -0.5,65.1667 -0.5,-0.5 Z"/></g>
<g><path style="opacity:1" fill="#f4f4f4" d="M 73.5,86.5 C 69.9878,87.0545 66.9878,86.3878 64.5,84.5C 68.2707,74.2883 72.6041,64.2883 77.5,54.5C 81.5,53.1667 85.5,53.1667 89.5,54.5C 95.2723,65.711 100.772,77.0443 106,88.5C 106.353,92.6091 105.186,96.2758 102.5,99.5C 95.8061,87.4455 89.6394,75.1122 84,62.5C 80.2276,70.3785 76.7276,78.3785 73.5,86.5 Z"/></g>
<g><path style="opacity:1" fill="#f3f3f3" d="M 132.5,84.5 C 130.012,86.3878 127.012,87.0545 123.5,86.5C 120.543,78.5859 117.043,70.9193 113,63.5C 110.256,67.9851 107.756,72.6518 105.5,77.5C 103.958,74.2476 102.291,71.0809 100.5,68C 102.637,63.5589 104.637,59.0589 106.5,54.5C 110.783,53.5078 115.116,53.1744 119.5,53.5C 123.551,63.9376 127.885,74.271 132.5,84.5 Z"/></g>
<g><path style="opacity:1" fill="#939393" d="M 64.5,84.5 C 66.9878,86.3878 69.9878,87.0545 73.5,86.5C 70.3752,87.4794 67.0419,87.8128 63.5,87.5C 63.2627,86.209 63.596,85.209 64.5,84.5 Z"/></g>
<g><path style="opacity:1" fill="#969696" d="M 132.5,84.5 C 133.404,85.209 133.737,86.209 133.5,87.5C 129.958,87.8128 126.625,87.4794 123.5,86.5C 127.012,87.0545 130.012,86.3878 132.5,84.5 Z"/></g>
<g><path style="opacity:1" fill="#dfdfdf" d="M 122.5,106.5 C 123.5,106.5 124.5,106.5 125.5,106.5C 125.5,111.833 125.5,117.167 125.5,122.5C 124.5,122.5 123.5,122.5 122.5,122.5C 122.5,117.167 122.5,111.833 122.5,106.5 Z"/></g>
<g><path style="opacity:1" fill="#f0f0f0" d="M 31.5,122.5 C 31.5,118.167 31.5,113.833 31.5,109.5C 30.1667,109.5 28.8333,109.5 27.5,109.5C 27.5,108.5 27.5,107.5 27.5,106.5C 31.1667,106.5 34.8333,106.5 38.5,106.5C 38.5,107.5 38.5,108.5 38.5,109.5C 37.1667,109.5 35.8333,109.5 34.5,109.5C 34.5,113.833 34.5,118.167 34.5,122.5C 33.5,122.5 32.5,122.5 31.5,122.5 Z"/></g>
<g><path style="opacity:1" fill="#e0e0e0" d="M 39.5,106.5 C 40.8221,106.33 41.9887,106.663 43,107.5C 44.308,110.73 45.308,114.064 46,117.5C 47.1758,113.973 48.3425,110.473 49.5,107C 50.7839,106.316 51.9505,106.483 53,107.5C 54.1524,110.44 55.1524,113.44 56,116.5C 57.4532,113.702 58.4532,110.702 59,107.5C 60.0113,106.663 61.1779,106.33 62.5,106.5C 61.5807,111.594 60.2473,116.594 58.5,121.5C 57.1667,122.833 55.8333,122.833 54.5,121.5C 51.6113,110.835 49.6113,111.168 48.5,122.5C 46.8333,122.5 45.1667,122.5 43.5,122.5C 42.4807,117.089 41.1473,111.756 39.5,106.5 Z"/></g>
<g><path style="opacity:1" fill="#f0f0f0" d="M 94.5,107.5 C 95.5,107.5 96.5,107.5 97.5,107.5C 97.8266,112.214 97.4933,116.88 96.5,121.5C 95.8333,118.5 95.1667,115.5 94.5,112.5C 93.8933,112.624 93.56,112.957 93.5,113.5C 93.023,115.464 91.8563,116.798 90,117.5C 87.6794,116.513 86.0128,114.846 85,112.5C 84.5017,115.817 84.335,119.15 84.5,122.5C 83.5,122.5 82.5,122.5 81.5,122.5C 81.5,117.167 81.5,111.833 81.5,106.5C 82.552,106.351 83.552,106.517 84.5,107C 85.9771,109.445 87.8104,111.612 90,113.5C 91.7524,111.649 93.2524,109.649 94.5,107.5 Z"/></g>
<g><path style="opacity:1" fill="#e9e9e9" d="M 111.5,106.5 C 113.591,106.318 115.591,106.652 117.5,107.5C 118.386,108.325 118.719,109.325 118.5,110.5C 110.962,108.537 108.462,111.203 111,118.5C 113.518,120.028 115.685,119.694 117.5,117.5C 116.675,116.614 115.675,116.281 114.5,116.5C 114.5,115.5 114.5,114.5 114.5,113.5C 116.5,113.5 118.5,113.5 120.5,113.5C 121.037,120.745 117.704,123.578 110.5,122C 104.939,116.353 105.272,111.186 111.5,106.5 Z"/></g>
<g><path style="opacity:1" fill="#efefef" d="M 166.5,106.5 C 167.5,106.5 168.5,106.5 169.5,106.5C 169.5,111.833 169.5,117.167 169.5,122.5C 168.5,122.5 167.5,122.5 166.5,122.5C 166.5,117.167 166.5,111.833 166.5,106.5 Z"/></g>
<g><path style="opacity:1" fill="#474747" d="M 27.5,109.5 C 28.8333,109.5 30.1667,109.5 31.5,109.5C 31.5,113.833 31.5,118.167 31.5,122.5C 30.5166,118.702 30.1832,114.702 30.5,110.5C 29.209,110.737 28.209,110.404 27.5,109.5 Z"/></g>
<g><path style="opacity:1" fill="#aeaeae" d="M 94.5,107.5 C 95.5676,106.566 96.901,106.232 98.5,106.5C 98.5,111.833 98.5,117.167 98.5,122.5C 97.1667,122.5 95.8333,122.5 94.5,122.5C 94.81,119.287 94.4767,116.287 93.5,113.5C 93.56,112.957 93.8933,112.624 94.5,112.5C 95.1667,115.5 95.8333,118.5 96.5,121.5C 97.4933,116.88 97.8266,112.214 97.5,107.5C 96.5,107.5 95.5,107.5 94.5,107.5 Z"/></g>
<g><path style="opacity:1" fill="#dfdfdf" d="M 129.5,111.5 C 134.406,110.306 137.406,112.139 138.5,117C 135.891,123.242 132.057,124.075 127,119.5C 126.018,116.225 126.851,113.559 129.5,111.5 Z"/></g>
<g><path style="opacity:1" fill="#dddddd" d="M 139.5,106.5 C 140.5,106.5 141.5,106.5 142.5,106.5C 142.5,108.167 142.5,109.833 142.5,111.5C 148.83,110.666 151.663,113.333 151,119.5C 150.5,120.667 149.667,121.5 148.5,122C 145.356,121.905 142.356,122.072 139.5,122.5C 139.5,117.167 139.5,111.833 139.5,106.5 Z"/></g>
<g><path style="opacity:1" fill="#e5e5e5" d="M 155.5,111.5 C 158.5,111.5 161.5,111.5 164.5,111.5C 164.5,115.167 164.5,118.833 164.5,122.5C 161.482,122.665 158.482,122.498 155.5,122C 151.565,118.504 151.565,115.004 155.5,111.5 Z"/></g>
<g><path style="opacity:1" fill="#141414" d="M 142.5,114.5 C 144.199,114.34 145.866,114.506 147.5,115C 148.995,118.841 147.661,120.174 143.5,119C 142.62,117.644 142.286,116.144 142.5,114.5 Z"/></g>
<g><path style="opacity:1" fill="#191919" d="M 157.5,113.5 C 161.013,114.028 162.013,115.862 160.5,119C 155.289,119.546 154.289,117.713 157.5,113.5 Z"/></g>
<g><path style="opacity:1" fill="#101010" d="M 131.5,113.5 C 132.496,113.414 133.329,113.748 134,114.5C 134.494,116.134 134.66,117.801 134.5,119.5C 129.294,119.541 128.294,117.541 131.5,113.5 Z"/></g>
<g><path style="opacity:1" fill="#ececec" d="M 69.5,106.5 C 77.1485,106.314 80.3152,109.981 79,117.5C 74.7481,123.653 70.0814,123.986 65,118.5C 63.3087,113.131 64.8087,109.131 69.5,106.5 Z"/></g>
<g><path style="opacity:1" fill="#151515" d="M 70.5,109.5 C 74.8026,109.963 76.6359,112.296 76,116.5C 71.9052,120.934 69.0718,120.268 67.5,114.5C 67.7573,112.308 68.7573,110.641 70.5,109.5 Z"/></g>
<g><path style="opacity:1" fill="#a2a2a2" d="M 53.5,131.5 C 55.3684,133.398 55.535,135.731 54,138.5C 53.5034,136.19 53.3367,133.857 53.5,131.5 Z"/></g>
<g><path style="opacity:1" fill="#979797" d="M 94.5,137.5 C 93.5655,136.432 93.2322,135.099 93.5,133.5C 95.1667,133.5 96.8333,133.5 98.5,133.5C 98.5,135.167 98.5,136.833 98.5,138.5C 96.901,138.768 95.5676,138.434 94.5,137.5 Z"/></g>
<g><path style="opacity:1" fill="#595959" d="M 136.5,131.5 C 137.693,131.97 138.36,132.97 138.5,134.5C 138.167,135.5 137.833,136.5 137.5,137.5C 136.534,135.604 136.201,133.604 136.5,131.5 Z"/></g>
<g><path style="opacity:1" fill="#a7a7a7" d="M 140.5,131.5 C 141.622,133.288 141.789,135.288 141,137.5C 139.759,135.452 139.592,133.452 140.5,131.5 Z"/></g>
<g><path style="opacity:1" fill="#171717" d="M 94.5,137.5 C 94.494,134.452 95.494,133.952 97.5,136C 96.7562,137.039 95.7562,137.539 94.5,137.5 Z"/></g>
<g><path style="opacity:1" fill="#818181" d="M 108.5,133.5 C 109.766,135.296 109.432,135.63 107.5,134.5C 107.167,135 106.833,135.5 106.5,136C 107.421,137.064 108.421,137.564 109.5,137.5C 107.537,138.168 105.537,138.502 103.5,138.5C 102.833,137.167 102.167,135.833 101.5,134.5C 99.9975,138.374 99.3309,138.041 99.5,133.5C 102.542,134.541 105.542,134.541 108.5,133.5 Z"/></g>
<g><path style="opacity:1" fill="#3e3e3e" d="M 111.5,133.5 C 111.36,135.124 112.027,136.29 113.5,137C 112.584,137.278 111.918,137.778 111.5,138.5C 110.833,138.167 110.167,137.833 109.5,137.5C 108.421,137.564 107.421,137.064 106.5,136C 106.833,135.5 107.167,135 107.5,134.5C 109.432,135.63 109.766,135.296 108.5,133.5C 108.281,132.325 108.614,131.325 109.5,130.5C 110.176,131.602 110.842,132.602 111.5,133.5 Z"/></g>
<g><path style="opacity:1" fill="#878787" d="M 143.5,133.5 C 145.167,133.5 146.833,133.5 148.5,133.5C 148.985,138.159 147.152,139.492 143,137.5C 142.421,136.072 142.588,134.738 143.5,133.5 Z"/></g>
<g><path style="opacity:1" fill="#757575" d="M 47.5,130.5 C 48.9778,130.238 50.3112,130.571 51.5,131.5C 50.3966,131.998 49.3966,132.331 48.5,132.5C 49.7598,133.382 50.9264,134.382 52,135.5C 52.6172,136.449 52.4506,137.282 51.5,138C 49.597,138.774 47.9304,138.44 46.5,137C 47.9506,137.263 49.2839,137.096 50.5,136.5C 48.9466,135.561 47.6133,134.394 46.5,133C 46.7432,132.098 47.0766,131.265 47.5,130.5 Z"/></g>
<g><path style="opacity:1" fill="#6c6c6c" d="M 69.5,132.5 C 71.0174,132.511 72.1841,133.177 73,134.5C 74.3629,132.216 75.8629,132.049 77.5,134C 76.8333,134.333 76.1667,134.667 75.5,135C 76.9733,135.71 77.6399,136.876 77.5,138.5C 75.549,138.773 74.049,138.107 73,136.5C 71.4506,139.003 69.7839,139.003 68,136.5C 67.6924,137.308 67.1924,137.975 66.5,138.5C 65.1667,136.833 65.1667,135.167 66.5,133.5C 67.9217,134.777 68.9217,134.443 69.5,132.5 Z"/></g>
<g><path style="opacity:1" fill="#1b1b1b" d="M 144.5,134.5 C 146.465,134.948 146.798,135.948 145.5,137.5C 143.481,136.867 143.147,135.867 144.5,134.5 Z"/></g>
<g><path style="opacity:1" fill="#aaaaaa" d="M 62.5,133.5 C 63.2389,133.369 63.9056,133.536 64.5,134C 63.1192,140.02 62.4526,139.853 62.5,133.5 Z"/></g>
<g><path style="opacity:1" fill="#717171" d="M 84.5,130.5 C 85.8333,130.5 87.1667,130.5 88.5,130.5C 88.238,131.978 88.5713,133.311 89.5,134.5C 92.475,132.983 93.1417,133.649 91.5,136.5C 91.1667,137.167 90.8333,137.833 90.5,138.5C 88.674,138.08 86.674,138.08 84.5,138.5C 84.5,135.833 84.5,133.167 84.5,130.5 Z"/></g>
<g><path style="opacity:1" fill="#181818" d="M 85.5,131.5 C 87.337,131.639 87.6704,132.306 86.5,133.5C 85.7025,133.043 85.3691,132.376 85.5,131.5 Z"/></g>
<g><path style="opacity:1" fill="#8c8c8c" d="M 121.5,130.5 C 127.488,130.664 128.821,133.164 125.5,138C 124.207,138.49 122.873,138.657 121.5,138.5C 121.5,135.833 121.5,133.167 121.5,130.5 Z"/></g>
<g><path style="opacity:1" fill="#151515" d="M 122.5,131.5 C 127.197,132.874 127.531,134.874 123.5,137.5C 122.534,135.604 122.201,133.604 122.5,131.5 Z"/></g>
<g><path style="opacity:1" fill="#989898" d="M 131.5,134.5 C 132.568,133.566 133.901,133.232 135.5,133.5C 135.5,135.833 135.5,138.167 135.5,140.5C 131.107,140.543 130.774,140.043 134.5,139C 131.016,138.734 130.016,137.234 131.5,134.5 Z"/></g>
<g><path style="opacity:1" fill="#141414" d="M 131.5,134.5 C 134.548,134.494 135.048,135.494 133,137.5C 131.961,136.756 131.461,135.756 131.5,134.5 Z"/></g>
<g><path style="opacity:1" fill="#878787" d="M 56.5,133.5 C 60.1378,132.737 61.6378,134.07 61,137.5C 57.3307,139.009 55.8307,137.676 56.5,133.5 Z"/></g>
<g><path style="opacity:1" fill="#0e0e0e" d="M 57.5,134.5 C 60.2933,134.74 60.7933,135.74 59,137.5C 57.9614,136.756 57.4614,135.756 57.5,134.5 Z"/></g>
<g><path style="opacity:1" fill="#7c7c7c" d="M 111.5,133.5 C 114.598,133.413 114.932,133.913 112.5,135C 114.221,135.739 115.887,136.573 117.5,137.5C 115.678,137.463 113.678,137.796 111.5,138.5C 111.918,137.778 112.584,137.278 113.5,137C 112.027,136.29 111.36,135.124 111.5,133.5 Z"/></g>
</svg>
